<svg data-v-0dd9719b="" version="1.0" xmlns="http://www.w3.org/2000/svg" xmlns:xlink="http://www.w3.org/1999/xlink" width="100%" height="100%" viewBox="0 0 340.000000 250.000000" preserveAspectRatio="xMidYMid meet" color-interpolation-filters="sRGB" style="margin: auto;"> <rect data-v-0dd9719b="" x="0" y="0" width="100%" height="100%" fill="#fff" fill-opacity="1" class="background"></rect> <rect data-v-0dd9719b="" x="0" y="0" width="100%" height="100%" fill="url(#watermark)" fill-opacity="1" class="watermarklayer"></rect> <g data-v-0dd9719b="" fill="#333" class="icon-text-wrapper icon-svg-group iconsvg" transform="translate(49.125,93.5283870698487)"><g class="iconsvg-imagesvg" transform="translate(0,0)"><g><rect fill="#333" fill-opacity="0" stroke-width="2" x="0" y="0" width="60" height="62.94322521085981" class="image-rect"></rect> <svg x="0" y="0" width="60" height="62.94322521085981" filtersec="colorsb6459682251" class="image-svg-svg primary" style="overflow: visible;"><svg xmlns="http://www.w3.org/2000/svg" viewBox="-0.0009527206420898438 0.0028464198112487793 95.31793975830078 99.99372863769531"><path d="M28.32 28.9c-3.09-.5-5.36-.11-6.39 1.32-3 4.14 5.63 15.4 19.2 25.14s27 14.29 30 10.15c1-1.43.67-3.71-.79-6.48 5.31 6.5 7.6 12.08 5.53 15-3.83 5.35-21.15-.52-38.68-13.1S8.54 33.79 12.38 28.44c2.07-2.89 8.08-2.5 15.94.46z" fill="#333"></path><path d="M70.81 78.71c4.54.73 7.87.15 9.38-1.95 4.36-6.07-8.25-22.58-28.19-36.87S12.42 18.93 8.07 25c-1.51 2.1-1 5.44 1.15 9.5C1.43 25-1.93 16.79 1.11 12.56c5.63-7.84 31 .76 56.73 19.21s42 39.77 36.36 47.6c-3.04 4.24-11.86 3.63-23.39-.66z" fill="#ec1b23"></path><path d="M54.21 27.8c2.53-1.75 4.71-2.37 6.23-1.53 4.38 2.41 1.53 16-6.38 30.4S36.19 80.76 31.8 78.35c-1.51-.83-2.16-3-2-6.07-2 8-1.63 13.91 1.43 15.59 5.66 3.12 18.52-9.41 28.73-28s13.89-36.13 8.23-39.24c-3.1-1.63-8.27 1.23-13.98 7.17z" fill="#333"></path><path d="M38.75 88.82c-3.71 2.56-6.91 3.46-9.13 2.24-6.43-3.53-2.25-23.5 9.35-44.6s26.22-35.33 32.65-31.8c2.22 1.23 3.17 4.41 3 8.92C77.48 11.83 77 3.16 72.51.7c-8.3-4.57-27.16 13.81-42.13 41S10 94.74 18.31 99.3c4.48 2.47 12.06-1.77 20.44-10.48z" fill="#ec1b23"></path></svg></svg> <!----></g></g> <g transform="translate(67,6.075361251831055)"><g data-gra="path-name" fill-rule="" class="tp-name iconsvg-namesvg" transform="translate(0,0)"><g transform="scale(1)"><g><path d="M31.88-20.85L20.82-20.85 20.82-19.96 33.55-19.96 33.55-15.3 2.45-15.3 2.45-19.96 15.18-19.96 15.18-20.85 4.16-20.85 4.16-24.74 15.18-24.74 15.18-25.63 3.38-25.63 3.38-29.9 15.18-29.9 15.18-31.03 20.82-31.03 20.82-29.9 32.62-29.9 32.62-25.63 20.82-25.63 20.82-24.74 31.88-24.74 31.88-20.85ZM10.64-9.67L10.64 3.18 5.01 3.18 5.01-14.33 30.99-14.33 30.99 3.18 25.36 3.18 25.36-9.67 10.64-9.67ZM24.12-8.47L24.12-4.39 11.92-4.39 11.92-8.47 24.12-8.47ZM24.12-3.18L24.12 0.89 11.92 0.89 11.92-3.18 24.12-3.18ZM62.02-23.96L45.71-23.96 45.71-16.19 69.09-16.19 69.09 3.07 63.46 3.07 63.46-11.15 40.08-11.15 40.08-28.93 50.17-28.93 50.83-31.77 56.31-30.56 55.96-28.93 67.65-28.93 67.65-17.59 62.02-17.59 62.02-23.96ZM47.92-22.29L59.15-22.29 59.15-17.94 47.92-17.94 47.92-22.29ZM52.89-9.98L52.89-3.18 55.69-3.18 55.69-8.54 61.17-8.54 61.17 1.86 39.03 1.86 39.03-8.54 44.47-8.54 44.47-3.18 47.26-3.18 47.26-9.98 52.89-9.98ZM83.42-22.72L85.44-22.72 85.44-15.26 83.42-15.26 83.42 3.11 77.98 3.11 77.98-31.03 83.42-31.03 83.42-22.72ZM85.36-25.2L85.36-30.37 105.63-30.37 105.63-25.2 85.36-25.2ZM76.97-24.66L76.97-9.32 74.25-9.32 74.25-24.66 76.97-24.66ZM86.21-23.46L104.78-23.46 104.78-4 86.21-4 86.21-23.46ZM99.15-8.89L99.15-18.56 91.84-18.56 91.84-8.89 99.15-8.89ZM98.17-15.88L98.17-11.57 92.82-11.57 92.82-15.88 98.17-15.88ZM105.86 2.95L85.09 2.95 85.09-2.25 105.86-2.25 105.86 2.95ZM125.44-30.72L125.75-25.48 121.24-25.2 121.24-21.09 125.86-21.09 125.86-15.84 121.24-15.84 121.24-12.27 125.63-12.27 125.63-5.75 121.24-5.75 121.24 3.03 115.61 3.03 115.61-15.84 110.33-15.84 110.33-21.09 115.61-21.09 115.61-24.85 110.8-24.58 110.49-29.83 125.44-30.72ZM141.67 2.56L126.95 2.56 126.95-29.24 141.67-29.24 141.67 2.56ZM132.58-24L132.58-2.68 136.04-2.68 136.04-24 132.58-24ZM114.64-14.41L114.64 2.95 110.83 2.95 110.83-14.41 114.64-14.41ZM154.76-30.21L154.76-19.5 149.13-19.5 149.13-30.21 154.76-30.21ZM164.62-30.21L164.62-19.5 158.99-19.5 158.99-30.21 164.62-30.21ZM174.52-30.21L174.52-19.11 168.89-19.11 168.89-30.21 174.52-30.21ZM177.2-17.24L177.2-12 146.76-12 146.76-17.24 177.2-17.24ZM170.83-11.38L177.05 1.13 171.96 3.53 165.75-8.97 170.83-11.38ZM152.85-11.34L157.98-9.01 151.88 3.65 146.72 1.28 152.85-11.34Z" transform="translate(-2.450000047683716, 31.770000457763672)"></path></g> <!----> <!----> <!----> <!----> <!----> <!----> <!----></g></g> <g data-gra="path-slogan" fill-rule="" class="tp-slogan iconsvg-slogansvg" fill="#333" transform="translate(5,41.42000198364258)"><rect x="0" height="1" y="4.185000419616699" width="9.930000305175781"></rect> <rect height="1" y="4.185000419616699" width="9.930000305175781" x="154.81999969482422"></rect> <g transform="translate(12.930000305175781,0)"><g transform="scale(1)"><path d="M5.91-1.08L5.02-1.78L5.63-2.48L6.70-1.64Q7.69-2.63 7.69-4.27L7.69-4.27Q7.50-7.64 4.69-7.83L4.69-7.83Q1.83-7.69 1.69-4.27L1.69-4.27Q1.83-0.94 4.69-0.80L4.69-0.80Q5.39-0.80 5.91-1.08L5.91-1.08ZM7.64-0.94L8.77-0.05L8.20 0.56L6.89-0.33Q6.05 0.14 4.69 0.14L4.69 0.14Q0.75 0 0.47-4.27L0.47-4.27Q0.70-8.72 4.69-8.81L4.69-8.81Q8.58-8.67 8.86-4.27L8.86-4.27Q8.81-2.20 7.64-0.94L7.64-0.94ZM10.41-8.58L11.58-8.58L11.58 0L10.41 0L10.41-8.58ZM14.95-8.58L19.27-1.64L19.27-8.58L20.39-8.58L20.39 0L19.08 0L14.72-6.94L14.67-6.94L14.67 0L13.55 0L13.55-8.58L14.95-8.58ZM28.59-3.61L25.97-3.61L25.97-4.59L29.72-4.59L29.72 0L28.97 0L28.69-1.08Q27.70 0.09 25.88 0.14L25.88 0.14Q24.14 0.14 23.20-0.75L23.20-0.75Q21.80-2.06 21.84-4.36L21.84-4.36Q22.17-8.63 25.92-8.81L25.92-8.81Q29.11-8.63 29.58-6L29.58-6L28.45-6Q27.98-7.78 25.88-7.83L25.88-7.83Q23.20-7.64 23.06-4.31L23.06-4.31Q23.06-0.75 25.92-0.75L25.92-0.75Q26.95-0.75 27.70-1.31L27.70-1.31Q28.64-2.06 28.59-3.61L28.59-3.61ZM35.02 0L31.55 0L31.55-8.58L35.06-8.58Q38.53-8.39 38.67-4.41L38.67-4.41Q38.48-0.09 35.02 0L35.02 0ZM34.88-7.64L32.72-7.64L32.72-0.98L34.97-0.98Q37.41-1.13 37.50-4.31L37.50-4.31Q37.45-7.55 34.88-7.64L34.88-7.64ZM45.80 0L44.95-2.48L41.48-2.48L40.59 0L39.42 0L42.66-8.58L43.97-8.58L47.06 0L45.80 0ZM43.22-7.31L41.86-3.52L44.53-3.52L43.27-7.31L43.22-7.31ZM54.89-4.27L54.89-4.27Q54.70-7.64 51.89-7.83L51.89-7.83Q49.03-7.69 48.89-4.27L48.89-4.27Q49.03-0.94 51.89-0.80L51.89-0.80Q54.70-0.98 54.89-4.27ZM56.06-4.27L56.06-4.27Q55.78 0 51.89 0.14L51.89 0.14Q47.95 0 47.67-4.27L47.67-4.27Q47.91-8.72 51.89-8.81L51.89-8.81Q55.78-8.67 56.06-4.27ZM61.92-5.06L66.42-5.06L66.42-8.58L67.59-8.58L67.59 0L66.42 0L66.42-3.98L61.92-3.98L61.92 0L60.75 0L60.75-8.58L61.92-8.58L61.92-5.06ZM70.69-1.03L75.84-1.03L75.84 0L69.52 0L69.52-8.58L75.75-8.58L75.75-7.59L70.69-7.59L70.69-4.92L75.38-4.92L75.38-3.89L70.69-3.89L70.69-1.03ZM78.75-8.58L83.06-1.64L83.06-8.58L84.19-8.58L84.19 0L82.88 0L78.52-6.94L78.47-6.94L78.47 0L77.34 0L77.34-8.58L78.75-8.58ZM92.39-3.61L89.77-3.61L89.77-4.59L93.52-4.59L93.52 0L92.77 0L92.48-1.08Q91.50 0.09 89.67 0.14L89.67 0.14Q87.94 0.14 87-0.75L87-0.75Q85.59-2.06 85.64-4.36L85.64-4.36Q85.97-8.63 89.72-8.81L89.72-8.81Q92.91-8.63 93.38-6L93.38-6L92.25-6Q91.78-7.78 89.67-7.83L89.67-7.83Q87-7.64 86.86-4.31L86.86-4.31Q86.86-0.75 89.72-0.75L89.72-0.75Q90.75-0.75 91.50-1.31L91.50-1.31Q92.44-2.06 92.39-3.61L92.39-3.61ZM96.47-5.06L100.97-5.06L100.97-8.58L102.14-8.58L102.14 0L100.97 0L100.97-3.98L96.47-3.98L96.47 0L95.30 0L95.30-8.58L96.47-8.58L96.47-5.06ZM105.23-1.03L110.39-1.03L110.39 0L104.06 0L104.06-8.58L110.30-8.58L110.30-7.59L105.23-7.59L105.23-4.92L109.92-4.92L109.92-3.89L105.23-3.89L105.23-1.03ZM118.64-8.58L115.73-4.41L118.78 0L117.33 0L114.98-3.52L112.64 0L111.23 0L114.33-4.41L111.42-8.58L112.88-8.58L115.03-5.30L117.23-8.58L118.64-8.58ZM120.05-8.58L121.22-8.58L121.22 0L120.05 0L120.05-8.58ZM124.59-8.58L128.91-1.64L128.91-8.58L130.03-8.58L130.03 0L128.72 0L124.36-6.94L124.31-6.94L124.31 0L123.19 0L123.19-8.58L124.59-8.58ZM138.23-3.61L135.61-3.61L135.61-4.59L139.36-4.59L139.36 0L138.61 0L138.33-1.08Q137.34 0.09 135.52 0.14L135.52 0.14Q133.78 0.14 132.84-0.75L132.84-0.75Q131.44-2.06 131.48-4.36L131.48-4.36Q131.81-8.63 135.56-8.81L135.56-8.81Q138.75-8.63 139.22-6L139.22-6L138.09-6Q137.63-7.78 135.52-7.83L135.52-7.83Q132.84-7.64 132.70-4.31L132.70-4.31Q132.70-0.75 135.56-0.75L135.56-0.75Q136.59-0.75 137.34-1.31L137.34-1.31Q138.28-2.06 138.23-3.61L138.23-3.61Z" transform="translate(-0.46875, 8.8125)"></path></g></g></g></g></g><defs v-gra="od"></defs></svg>